<svg width="16.000000" height="20.000000" viewBox="0 0 16 20" fill="none" xmlns="http://www.w3.org/2000/svg" xmlns:xlink="http://www.w3.org/1999/xlink">
	<desc>
			Created with Pixso.
	</desc>
	<defs/>
	<path id="path" d="M16 10C16 8.89 15.1 8 14 8L13 8L13 5C13 2.24 10.75 0 8 0C5.24 0 3 2.24 3 5L3 8L2 8C0.89 8 0 8.89 0 10L0 18C0 19.1 0.89 20 2 20L14 20C15.1 20 16 19.1 16 18L16 10ZM5 5C5 3.34 6.34 2 8 2C9.65 2 11 3.34 11 5L11 8L5 8L5 5Z" fill="#FFFFFF" fill-opacity="1.000000" fill-rule="nonzero"/>
</svg>
