<svg width="20.000000" height="16.000000" viewBox="0 0 20 16" fill="none" xmlns="http://www.w3.org/2000/svg" xmlns:xlink="http://www.w3.org/1999/xlink">
	<desc>
			Created with Pixso.
	</desc>
	<defs/>
	<path id="path" d="M18 0L2 0C0.89 0 0 0.89 0 2L0 14C0 15.1 0.89 16 2 16L18 16C19.1 16 20 15.1 20 14L20 2C20 0.89 19.1 0 18 0ZM18 2L18 2.51L10 8.73L2 2.51L2 2L18 2ZM2 14L2 5.04L9.38 10.78C9.79 11.11 10.2 11.11 10.61 10.78L18 5.04L18 14L2 14Z" fill="#FFFFFF" fill-opacity="1.000000" fill-rule="nonzero"/>
</svg>
