<svg width="17.870205" height="17.869785" viewBox="0 0 17.8702 17.8698" fill="none" xmlns="http://www.w3.org/2000/svg" xmlns:xlink="http://www.w3.org/1999/xlink">
	<desc>
			Created with Pixso.
	</desc>
	<defs/>
	<path id="path" d="M17.48 14L13.42 10.31C12.94 9.87 12.48 9.89 12.03 10.35L9.63 12.81C9.06 12.7 7.9 12.34 6.71 11.15C5.52 9.96 5.15 8.8 5.05 8.23L7.51 5.83C7.97 5.38 7.98 4.92 7.55 4.44L3.85 0.38C3.42 -0.1 2.96 -0.13 2.46 0.29L0.29 2.15C0.11 2.33 0.02 2.55 0 2.8C-0.01 3.05 -0.3 8.97 4.29 13.57C8.3 17.57 13.32 17.86 14.7 17.86C14.9 17.86 15.03 17.86 15.06 17.86C15.31 17.84 15.53 17.75 15.71 17.57L17.57 15.39C17.99 14.9 17.96 14.44 17.48 14Z" fill="#FFFFFF" fill-opacity="1.000000" fill-rule="nonzero"/>
</svg>
